<svg width="35" height="35" viewBox="0 0 35 35" fill="none" xmlns="http://www.w3.org/2000/svg">
<path d="M6.30078 4.09619C4.37612 4.09619 2.80078 5.67153 2.80078 7.59619V29.9962C2.80078 31.9209 4.37612 33.4962 6.30078 33.4962H18.0832C18.1588 33.5087 18.2359 33.5087 18.3115 33.4962H22.2832C22.3588 33.5087 22.4359 33.5087 22.5115 33.4962H28.7008C30.6254 33.4962 32.2008 31.9209 32.2008 29.9962V7.59619C32.2008 5.67153 30.6254 4.09619 28.7008 4.09619H6.30078ZM6.30078 5.49619H28.7008C29.8687 5.49619 30.8008 6.42825 30.8008 7.59619V29.9962C30.8008 31.1641 29.8687 32.0962 28.7008 32.0962H23.1008V22.2962H25.775L26.7553 17.3962H23.1008V15.9962C23.1008 15.6059 23.1379 15.5754 23.2689 15.4903C23.4 15.4052 23.8049 15.2962 24.5008 15.2962H26.6008V11.3546L26.2016 11.1646C26.2016 11.1646 24.5936 10.3962 22.4008 10.3962C20.8258 10.3962 19.5319 11.0237 18.7039 12.0587C17.8759 13.0937 17.5008 14.4795 17.5008 15.9962V17.3962H15.4008V22.2962H17.5008V32.0962H6.30078C5.13284 32.0962 4.20078 31.1641 4.20078 29.9962V7.59619C4.20078 6.42825 5.13284 5.49619 6.30078 5.49619ZM22.4008 11.7962C23.8561 11.7962 24.7719 12.1171 25.2008 12.287V13.8962H24.5008C23.6952 13.8962 23.0497 13.9628 22.5061 14.3159C21.9625 14.669 21.7008 15.3392 21.7008 15.9962V18.7962H25.0463L24.6266 20.8962H21.7008V32.0962H18.9008V20.8962H16.8008V18.7962H18.9008V15.9962C18.9008 14.7129 19.2256 13.6487 19.7977 12.9337C20.3697 12.2187 21.1758 11.7962 22.4008 11.7962Z" fill="#2ADA4D"/>
</svg>
