<svg width="35" height="36" viewBox="0 0 35 36" fill="none" xmlns="http://www.w3.org/2000/svg">
<path d="M11.1996 2.16003C6.18235 2.16003 2.09961 6.35942 2.09961 11.52V24.48C2.09961 29.6406 6.18235 33.84 11.1996 33.84H23.7996C28.8169 33.84 32.8996 29.6406 32.8996 24.48V11.52C32.8996 6.35942 28.8169 2.16003 23.7996 2.16003H11.1996ZM11.1996 3.60003H23.7996C28.0602 3.60003 31.4996 7.13777 31.4996 11.52V24.48C31.4996 28.8623 28.0602 32.4 23.7996 32.4H11.1996C6.93907 32.4 3.49961 28.8623 3.49961 24.48V11.52C3.49961 7.13777 6.93907 3.60003 11.1996 3.60003ZM25.8996 7.92003C25.5283 7.92003 25.1722 8.07175 24.9097 8.3418C24.6471 8.61185 24.4996 8.97812 24.4996 9.36003C24.4996 9.74194 24.6471 10.1082 24.9097 10.3783C25.1722 10.6483 25.5283 10.8 25.8996 10.8C26.2709 10.8 26.627 10.6483 26.8896 10.3783C27.1521 10.1082 27.2996 9.74194 27.2996 9.36003C27.2996 8.97812 27.1521 8.61185 26.8896 8.3418C26.627 8.07175 26.2709 7.92003 25.8996 7.92003ZM17.4996 10.08C13.2553 10.08 9.79961 13.6345 9.79961 18C9.79961 22.3656 13.2553 25.92 17.4996 25.92C21.7439 25.92 25.1996 22.3656 25.1996 18C25.1996 13.6345 21.7439 10.08 17.4996 10.08ZM17.4996 11.52C20.9873 11.52 23.7996 14.4127 23.7996 18C23.7996 21.5874 20.9873 24.48 17.4996 24.48C14.0119 24.48 11.1996 21.5874 11.1996 18C11.1996 14.4127 14.0119 11.52 17.4996 11.52Z" fill="#2ADA4D"/>
</svg>
