<svg width="33" height="33" viewBox="0 0 33 33" fill="none" xmlns="http://www.w3.org/2000/svg">
<path d="M16.2213 0.000786145C9.07157 -0.0702292 2.49176 4.67584 0.554964 11.8952C-1.75237 20.4505 3.34676 29.2472 11.9211 31.5359C20.4956 33.8375 29.3118 28.7501 31.605 20.195C33.8982 11.64 28.8132 2.84299 20.2389 0.555186C18.9005 0.200109 17.5466 0.0151861 16.2219 0.00112809L16.2213 0.000786145ZM16.2072 0.796728C17.4753 0.81079 18.7571 0.98165 20.0392 1.32231C28.186 3.49671 33.0145 11.8667 30.8356 19.9955C28.6563 28.1247 20.2669 32.942 12.1201 30.7676C3.97305 28.5792 -0.869578 20.2367 1.31022 12.0944C3.16116 5.23011 9.41373 0.72561 16.2079 0.79671L16.2072 0.796728ZM13.3019 8.64149C13.0171 8.64149 12.7324 8.74063 12.4617 8.86894C12.4476 8.86894 12.4329 8.85488 12.4195 8.86894C12.4054 8.86894 12.3907 8.86894 12.3766 8.88301C12.3625 8.88301 12.3337 8.89707 12.3049 8.91113H12.2627C12.2057 8.95332 12.1488 8.99621 12.12 9.05316C12.1059 9.06722 12.1059 9.08129 12.0911 9.09535C11.5645 9.49367 11.2221 10.0903 11.208 10.7153L11.2221 20.3507L11.208 21.3597V21.3738C11.2221 22.0843 11.5926 22.7804 12.262 23.1646C12.9026 23.5485 13.6862 23.52 14.2986 23.1934L23.5569 17.8637C23.6286 17.8208 23.6856 17.7646 23.7281 17.6932V17.6792C24.2407 17.2953 24.6253 16.7264 24.6253 16.0448C24.6253 15.2777 24.1978 14.6094 23.571 14.2398L14.3127 8.91083H14.2986C13.9998 8.74033 13.6581 8.64118 13.3019 8.64118L13.3019 8.64149ZM13.3019 9.43743C13.5157 9.43743 13.7294 9.50844 13.9143 9.60793L23.1726 14.9373C23.5572 15.1503 23.8132 15.5627 23.8132 16.0454C23.8132 16.5288 23.5565 16.9404 23.1579 17.1683C23.1438 17.1683 23.115 17.1824 23.1009 17.1971L13.9146 22.4973H13.9006C13.53 22.6963 13.0603 22.7104 12.6613 22.4832C12.2485 22.2417 12.0207 21.8153 12.0207 21.3752V21.3611L12.0348 20.3521L12.0207 10.7167C12.0207 10.2762 12.2485 9.86382 12.6613 9.62268C12.861 9.50877 13.0888 9.43775 13.3025 9.43775L13.3019 9.43743Z" fill="#2ADA4D"/>
</svg>
