<svg width="160" height="67" viewBox="0 0 160 67" fill="none" xmlns="http://www.w3.org/2000/svg">
<path d="M100.471 0L108.892 8.42112L51.2531 66.0599L42.8319 57.6388L100.471 0Z" fill="#2ADA4D"/>
<path d="M26.2385 41.1838V46.8431H0V42.3414L16.4634 22.491H0.342987V16.8317H25.5954V21.3334L9.1749 41.1838H26.2385Z" fill="white"/>
<path d="M43.6836 16.8317C46.3417 16.8317 48.6426 17.2748 50.5862 18.1608C52.5584 19.0469 54.0732 20.3045 55.1308 21.9337C56.1883 23.5629 56.7171 25.4922 56.7171 27.7216C56.7171 29.9224 56.1883 31.8517 55.1308 33.5095C54.0732 35.1387 52.5584 36.3963 50.5862 37.2823C48.6426 38.1398 46.3417 38.5685 43.6836 38.5685H37.6385V46.8431H30.693V16.8317H43.6836ZM43.2977 32.9093C45.3842 32.9093 46.9706 32.4662 48.0567 31.5802C49.1428 30.6655 49.6859 29.3793 49.6859 27.7216C49.6859 26.0352 49.1428 24.749 48.0567 23.863C46.9706 22.9483 45.3842 22.491 43.2977 22.491H37.6385V32.9093H43.2977Z" fill="white"/>
<path d="M89.2004 16.8317V46.8431H82.2549V34.5384H68.6211V46.8431H61.6757V16.8317H68.6211V28.6648H82.2549V16.8317H89.2004Z" fill="white"/>
<path d="M110.835 47.3576C107.72 47.3576 104.904 46.6859 102.389 45.3425C99.9023 43.9992 97.9444 42.1556 96.5153 39.8119C95.1148 37.4395 94.4145 34.7814 94.4145 31.8374C94.4145 28.8934 95.1148 26.2496 96.5153 23.9058C97.9444 21.5335 99.9023 19.6757 102.389 18.3323C104.904 16.9889 107.72 16.3173 110.835 16.3173C113.95 16.3173 116.752 16.9889 119.238 18.3323C121.725 19.6757 123.683 21.5335 125.112 23.9058C126.541 26.2496 127.255 28.8934 127.255 31.8374C127.255 34.7814 126.541 37.4395 125.112 39.8119C123.683 42.1556 121.725 43.9992 119.238 45.3425C116.752 46.6859 113.95 47.3576 110.835 47.3576ZM110.835 41.441C112.607 41.441 114.208 41.0409 115.637 40.2406C117.066 39.4117 118.181 38.2684 118.981 36.8107C119.81 35.353 120.224 33.6953 120.224 31.8374C120.224 29.9796 119.81 28.3218 118.981 26.8641C118.181 25.4064 117.066 24.2774 115.637 23.4771C114.208 22.6482 112.607 22.2338 110.835 22.2338C109.063 22.2338 107.462 22.6482 106.033 23.4771C104.604 24.2774 103.475 25.4064 102.646 26.8641C101.846 28.3218 101.446 29.9796 101.446 31.8374C101.446 33.6953 101.846 35.353 102.646 36.8107C103.475 38.2684 104.604 39.4117 106.033 40.2406C107.462 41.0409 109.063 41.441 110.835 41.441Z" fill="white"/>
<path d="M160 16.8317V46.8431H154.298L139.335 28.6219V46.8431H132.475V16.8317H138.22L153.14 35.0529V16.8317H160Z" fill="white"/>
</svg>
