<svg width="474" height="148" viewBox="0 0 474 148" fill="none" xmlns="http://www.w3.org/2000/svg">
<path fill-rule="evenodd" clip-rule="evenodd" d="M0 37L282 0V111L0 148V37Z" fill="#404740"/>
<path d="M40.832 117.96V125H2.624V119.432L28.992 87.24H3.072V80.2H40V85.768L13.632 117.96H40.832ZM45.3325 103.88H62.9325V110.536H45.3325V103.88ZM101.766 125L92.6135 111.88C92.2295 111.923 91.6535 111.944 90.8855 111.944H80.7735V125H72.4535V80.2H90.8855C94.7682 80.2 98.1388 80.84 100.998 82.12C103.899 83.4 106.118 85.2347 107.654 87.624C109.19 90.0133 109.958 92.8507 109.958 96.136C109.958 99.5067 109.126 102.408 107.462 104.84C105.84 107.272 103.494 109.085 100.422 110.28L110.726 125H101.766ZM101.574 96.136C101.574 93.2773 100.635 91.08 98.7575 89.544C96.8802 88.008 94.1282 87.24 90.5015 87.24H80.7735V105.096H90.5015C94.1282 105.096 96.8802 104.328 98.7575 102.792C100.635 101.213 101.574 98.9947 101.574 96.136ZM146.24 125L134.08 107.976L122.048 125H112.576L129.216 102.152L113.472 80.2H122.88L134.336 96.136L145.664 80.2H154.688L139.008 101.832L155.84 125H146.24ZM178.263 98.696C182.402 99.208 185.559 100.616 187.735 102.92C189.911 105.224 190.999 108.104 190.999 111.56C190.999 114.163 190.338 116.531 189.015 118.664C187.692 120.797 185.687 122.504 182.999 123.784C180.354 125.021 177.111 125.64 173.271 125.64C170.071 125.64 166.978 125.192 163.991 124.296C161.047 123.357 158.53 122.077 156.439 120.456L160.023 113.992C161.644 115.357 163.607 116.445 165.911 117.256C168.258 118.024 170.668 118.408 173.143 118.408C176.087 118.408 178.391 117.811 180.055 116.616C181.762 115.379 182.615 113.715 182.615 111.624C182.615 109.533 181.804 107.912 180.183 106.76C178.604 105.565 176.172 104.968 172.887 104.968H168.791V99.272L178.967 87.176H158.615V80.2H189.143V85.768L178.263 98.696ZM215.129 125.64C211.545 125.64 208.345 124.744 205.529 122.952C202.713 121.117 200.494 118.472 198.873 115.016C197.252 111.517 196.441 107.379 196.441 102.6C196.441 97.8213 197.252 93.704 198.873 90.248C200.494 86.7493 202.713 84.104 205.529 82.312C208.345 80.4773 211.545 79.56 215.129 79.56C218.713 79.56 221.913 80.4773 224.729 82.312C227.588 84.104 229.828 86.7493 231.449 90.248C233.07 93.704 233.881 97.8213 233.881 102.6C233.881 107.379 233.07 111.517 231.449 115.016C229.828 118.472 227.588 121.117 224.729 122.952C221.913 124.744 218.713 125.64 215.129 125.64ZM215.129 118.408C218.329 118.408 220.846 117.085 222.681 114.44C224.558 111.795 225.497 107.848 225.497 102.6C225.497 97.352 224.558 93.4053 222.681 90.76C220.846 88.1147 218.329 86.792 215.129 86.792C211.972 86.792 209.454 88.1147 207.577 90.76C205.742 93.4053 204.825 97.352 204.825 102.6C204.825 107.848 205.742 111.795 207.577 114.44C209.454 117.085 211.972 118.408 215.129 118.408ZM258.192 125.64C254.608 125.64 251.408 124.744 248.592 122.952C245.776 121.117 243.557 118.472 241.936 115.016C240.314 111.517 239.504 107.379 239.504 102.6C239.504 97.8213 240.314 93.704 241.936 90.248C243.557 86.7493 245.776 84.104 248.592 82.312C251.408 80.4773 254.608 79.56 258.192 79.56C261.776 79.56 264.976 80.4773 267.792 82.312C270.65 84.104 272.89 86.7493 274.512 90.248C276.133 93.704 276.944 97.8213 276.944 102.6C276.944 107.379 276.133 111.517 274.512 115.016C272.89 118.472 270.65 121.117 267.792 122.952C264.976 124.744 261.776 125.64 258.192 125.64ZM258.192 118.408C261.392 118.408 263.909 117.085 265.744 114.44C267.621 111.795 268.56 107.848 268.56 102.6C268.56 97.352 267.621 93.4053 265.744 90.76C263.909 88.1147 261.392 86.792 258.192 86.792C255.034 86.792 252.517 88.1147 250.64 90.76C248.805 93.4053 247.888 97.352 247.888 102.6C247.888 107.848 248.805 111.795 250.64 114.44C252.517 117.085 255.034 118.408 258.192 118.408Z" fill="white"/>
</svg>
